<svg width="512" height="512" viewBox="0 0 512 512" fill="none" xmlns="http://www.w3.org/2000/svg">
<path d="M418.262 279.574C414.772 278.701 411.282 279.574 408.229 281.755C396.888 291.351 383.801 299.203 369.407 304.438C355.884 309.672 341.053 312.289 325.35 312.289C290.017 312.289 257.738 297.894 234.619 274.776C211.5 251.657 197.105 219.377 197.105 184.045C197.105 169.214 199.722 154.819 204.084 141.733C208.883 127.774 215.862 115.124 225.022 104.219C228.948 99.4205 228.076 92.4412 223.277 88.5153C220.224 86.3343 216.734 85.4619 213.245 86.3343C176.167 96.3671 143.888 118.614 120.769 148.276C98.5224 177.501 85 213.707 85 253.401C85 300.948 104.193 344.132 135.6 375.539C167.007 406.946 210.191 426.139 257.738 426.139C297.869 426.139 334.946 412.181 364.608 389.062C394.707 365.506 416.517 331.919 425.677 293.532C427.858 286.989 424.369 280.882 418.262 279.574ZM351.522 370.741C326.222 390.806 293.943 403.02 258.61 403.02C217.171 403.02 179.657 386.008 152.612 358.963C125.567 331.919 108.555 294.405 108.555 252.965C108.555 218.505 119.897 187.098 139.526 161.798C153.048 144.35 170.06 129.955 189.69 119.922C187.509 124.72 185.327 129.519 183.583 134.753C177.912 150.457 175.295 167.033 175.295 184.481C175.295 225.92 192.307 263.87 219.352 290.915C246.396 317.96 284.346 334.972 325.786 334.972C344.107 334.972 361.555 331.919 377.695 325.812C383.365 323.631 389.036 321.45 394.27 318.832C383.801 338.898 369.407 356.782 351.522 370.741Z" fill="white"/>
</svg>
