<svg width="512" height="512" viewBox="0 0 512 512" fill="none" xmlns="http://www.w3.org/2000/svg">
<path d="M256.145 85.332C162.043 85.332 85.4805 161.898 85.4805 256C85.4805 350.102 162.043 426.668 256.145 426.668C350.246 426.668 426.812 350.102 426.812 256C426.812 161.898 350.246 85.332 256.145 85.332V85.332ZM256.145 394.668C179.688 394.668 117.48 332.457 117.48 256C117.48 179.543 179.688 117.332 256.145 117.332C332.605 117.332 394.812 179.543 394.812 256C394.812 332.457 332.605 394.668 256.145 394.668Z" fill="black"/>
<path d="M240.145 16V53.332C240.145 62.1641 247.312 69.332 256.145 69.332C264.977 69.332 272.145 62.1641 272.145 53.332V16C272.145 7.16797 264.977 0 256.145 0C247.312 0 240.145 7.16797 240.145 16Z" fill="black"/>
<path d="M56.2306 124.395C48.379 120.363 38.7384 123.586 34.7267 131.434C30.7384 139.328 33.8946 148.949 41.7892 152.937L73.4025 168.937C75.7306 170.133 78.2032 170.668 80.6134 170.668C86.461 170.668 92.0939 167.465 94.9064 161.898C98.8985 154.004 95.7384 144.383 87.8478 140.395L56.2306 124.395Z" fill="black"/>
<path d="M73.4259 343.062L41.8087 359.062C33.9142 363.051 30.7579 372.672 34.7462 380.566C37.5626 386.133 43.1954 389.332 49.0431 389.332C51.4728 389.332 53.9259 388.801 56.254 387.605L87.8673 371.605C95.7618 367.617 98.9181 357.996 94.9298 350.102C90.9181 342.23 81.297 339.008 73.4259 343.062Z" fill="black"/>
<path d="M256.145 442.668C247.312 442.668 240.145 449.836 240.145 458.668V496C240.145 504.832 247.312 512 256.145 512C264.977 512 272.145 504.832 272.145 496V458.668C272.145 449.836 264.977 442.668 256.145 442.668V442.668Z" fill="black"/>
<path d="M470.504 359.063L438.887 343.063C431.016 339.031 421.395 342.231 417.383 350.102C413.395 357.996 416.551 367.617 424.445 371.606L456.059 387.606C458.363 388.801 460.84 389.332 463.27 389.332C469.117 389.332 474.746 386.133 477.563 380.566C481.555 372.672 478.375 363.051 470.504 359.063Z" fill="black"/>
<path d="M456.059 124.395L424.445 140.395C416.551 144.383 413.395 154.004 417.383 161.898C420.199 167.465 425.832 170.668 431.676 170.668C434.109 170.668 436.563 170.133 438.887 168.937L470.504 152.937C478.395 148.949 481.555 139.328 477.563 131.434C473.574 123.562 463.953 120.34 456.059 124.395V124.395Z" fill="black"/>
</svg>
